<?xml version="1.0" encoding="utf-8"?>
<!-- Generator: Adobe Illustrator 24.1.0, SVG Export Plug-In . SVG Version: 6.00 Build 0)  -->
<svg version="1.1" id="Layer_1" xmlns="http://www.w3.org/2000/svg" xmlns:xlink="http://www.w3.org/1999/xlink" x="0px" y="0px"
	 viewBox="0 0 100 100" style="enable-background:new 0 0 100 100;" xml:space="preserve">
<style type="text/css">
	.st0{fill:none;stroke:#FCFAFA;stroke-width:2;stroke-linecap:round;stroke-miterlimit:10;}
</style>
<path class="st0" d="M26.1,40.2l-1.4-1.4c-1.7-1.7-1.7-4.4,0-6l8.1-8.1c1.7-1.7,4.4-1.7,6,0l8.1,8.1c1.7,1.7,4.4,1.7,6,0l8.1-8.1
	c1.7-1.7,4.4-1.7,6,0l8.1,8.1c1.7,1.7,1.7,4.4,0,6l-8,8.2c-1.7,1.7-1.7,4.4,0,6l8.1,8.1c1.7,1.7,1.7,4.4,0,6l-8.1,8.1
	c-1.7,1.7-4.4,1.7-6,0L53,67.1c-1.7-1.7-4.4-1.7-6,0l-8.1,8.1c-1.7,1.7-4.4,1.7-6,0l-8.1-8.1c-1.7-1.7-1.7-4.4,0-6l8.1-8.1
	c1.7-1.7,1.7-4.4,0-6l-2.5-2.5"/>
</svg>
